<svg xmlns="http://www.w3.org/2000/svg" width="45" height="17"><path d="M0 16.905h3.317V.044H0v16.861zm10.768-12.81c-.388-1.597-2.627-1.307-2.627-1.307v4.444a.194.194 0 0 1 .043 0c.502.059 1.148.03 1.766-.304.617-.334 1.206-1.235.818-2.832zm.302 12.81L8.18 9.061l-.04-.01v7.854H4.825V.044h3.187S10.136 0 11.586.566c1.45.567 2.657 2.106 2.412 4.924-.227 2.625-2.05 3.649-2.297 3.776l2.814 7.64H11.07zm10.897 0l-3.188-8.781v8.781h-3.316V0h3.316v7.648L21.536.044h3.403l-3.101 7.842 3.531 9.02h-3.402zm22.053-2.396s-.144 1.002-1.034 1.742c-.674.561-1.783.623-2.283.62-.5.003-1.609-.059-2.283-.62a3.054 3.054 0 0 1-1.034-1.742L37.3 5.272h2.24l.086 8.67s.158.843.905.872c.062.002.118.006.172.01.054-.004.11-.008.172-.01.747-.03.905-.872.905-.872l.086-8.67h2.24l-.086 9.237zm-8.662-2.903l1.942 5.3h-2.373l-1.996-5.444-.022-.005v5.448h-2.285V5.273h2.196s1.464-.03 2.463.359c.999.389 1.83 1.445 1.661 3.38-.158 1.815-1.43 2.515-1.586 2.594zm-.64-3.552c-.266-1.096-1.81-.897-1.81-.897v3.05l.03.001c.347.04.792.02 1.217-.21.425-.229.831-.847.564-1.944zm-6.85 8.808a1.343 1.343 0 0 1-1.336-1.351c0-.746.598-1.35 1.336-1.35.737 0 1.335.604 1.335 1.35 0 .746-.598 1.35-1.335 1.35z" fill-rule="evenodd"/></svg>